# WaveFront *.obj file (generated by Autodesk ATF)

mtllib Pieza3.mtl

g Sólido2

v -3041.757812 0.000000 -682.070312
v -3041.757812 200.000000 -682.070312
v -3038.606873 0.000000 -713.549042
v -3038.606873 200.000000 -713.549042
v -3031.757812 0.000000 -682.070312
v -3031.757812 200.000000 -682.070312
v -3030.042725 0.000000 -743.330688
v -3030.042725 200.000000 -743.330688
v -3027.969971 0.000000 -711.553268
v -3027.969971 200.000000 -711.553268
v -3018.937073 0.000000 -739.521790
v -3018.937073 200.000000 -739.521790
v -3016.065063 0.000000 -771.415100
v -3016.065063 200.000000 -771.415100
v -3004.659119 0.000000 -765.975952
v -3004.659119 200.000000 -765.975952
v -2996.674500 0.000000 -797.802353
v -2996.674500 200.000000 -797.802353
v -2985.136414 0.000000 -790.915680
v -2985.136414 200.000000 -790.915680
v -2971.870728 0.000000 -822.492371
v -2971.870728 200.000000 -822.492371
v -2960.368652 0.000000 -814.341049
v -2960.368652 200.000000 -814.341049
v -2941.653748 0.000000 -845.485306
v -2941.653748 200.000000 -845.485306
v -2930.355835 0.000000 -836.251984
v -2930.355835 200.000000 -836.251984
v -2906.023560 0.000000 -866.781082
v -2906.023560 200.000000 -866.781082
v -2895.098267 0.000000 -856.648636
v -2895.098267 200.000000 -856.648636
v -2864.980164 0.000000 -886.379623
v -2864.980164 200.000000 -886.379623
v -2854.595947 0.000000 -875.530777
v -2854.595947 200.000000 -875.530777
v -2818.523560 0.000000 -904.281082
v -2818.523560 200.000000 -904.281082
v -2808.848267 0.000000 -892.898636
v -2808.848267 200.000000 -892.898636
v -2766.653748 0.000000 -920.485306
v -2766.653748 200.000000 -920.485306
v -2757.855835 0.000000 -908.751984
v -2757.855835 200.000000 -908.751984
v -2709.370728 0.000000 -934.992371
v -2709.370728 200.000000 -934.992371
v -2701.618652 0.000000 -923.091049
v -2701.618652 200.000000 -923.091049
v -2646.674500 0.000000 -947.802353
v -2646.674500 200.000000 -947.802353
v -2640.136414 0.000000 -935.915680
v -2640.136414 200.000000 -935.915680
v -2578.565063 0.000000 -958.915100
v -2578.565063 200.000000 -958.915100
v -2573.409119 0.000000 -947.225952
v -2573.409119 200.000000 -947.225952
v -2505.042572 0.000000 -968.330688
v -2505.042572 200.000000 -968.330688
v -2501.436920 0.000000 -957.021790
v -2501.436920 200.000000 -957.021790
v -2426.106720 0.000000 -976.049042
v -2426.106720 200.000000 -976.049042
v -2424.219818 0.000000 -965.303268
v -2424.219818 200.000000 -965.303268
v -2341.757812 0.000000 -982.070312
v -2341.757812 0.000000 -972.070312
v -2341.757812 200.000000 -982.070312
v -2341.757812 200.000000 -972.070312
v -1391.757812 0.000000 -982.070312
v -1391.757812 0.000000 -972.070312
v -1391.757812 200.000000 -982.070312
v -1391.757812 200.000000 -972.070312
vt 0.000000 0.000000 0.000000
vt 1.000000 0.000000 0.000000
vt 1.000000 20.000000 0.000000
vt 0.000000 20.000000 0.000000
vt 0.000000 0.000000 0.000000
vt 4.759858 0.000000 0.000000
vt 9.519716 0.000000 0.000000
vt 14.279574 0.000000 0.000000
vt 19.039433 0.000000 0.000000
vt 23.799290 0.000000 0.000000
vt 28.559149 0.000000 0.000000
vt 33.319008 0.000000 0.000000
vt 38.078865 0.000000 0.000000
vt 42.838722 0.000000 0.000000
vt 47.598579 0.000000 0.000000
vt 52.358440 0.000000 0.000000
vt 57.118298 0.000000 0.000000
vt 61.878155 0.000000 0.000000
vt 66.638016 0.000000 0.000000
vt 71.397873 0.000000 0.000000
vt 76.157730 0.000000 0.000000
vt 76.157730 20.000000 0.000000
vt 71.397873 20.000000 0.000000
vt 66.638016 20.000000 0.000000
vt 61.878155 20.000000 0.000000
vt 57.118298 20.000000 0.000000
vt 52.358440 20.000000 0.000000
vt 47.598579 20.000000 0.000000
vt 42.838722 20.000000 0.000000
vt 38.078865 20.000000 0.000000
vt 33.319008 20.000000 0.000000
vt 28.559149 20.000000 0.000000
vt 23.799290 20.000000 0.000000
vt 19.039433 20.000000 0.000000
vt 14.279574 20.000000 0.000000
vt 9.519716 20.000000 0.000000
vt 4.759858 20.000000 0.000000
vt 0.000000 20.000000 0.000000
vt 0.000000 0.000000 0.000000
vt 95.000000 0.000000 0.000000
vt 95.000000 20.000000 0.000000
vt 0.000000 20.000000 0.000000
vt 0.000000 0.000000 0.000000
vt 1.000000 0.000000 0.000000
vt 1.000000 20.000000 0.000000
vt 0.000000 20.000000 0.000000
vt 0.000000 0.000000 0.000000
vt 95.000000 0.000000 0.000000
vt 95.000000 20.000000 0.000000
vt 0.000000 20.000000 0.000000
vt 0.000000 0.000000 0.000000
vt 4.677907 0.000000 0.000000
vt 9.355814 0.000000 0.000000
vt 14.033721 0.000000 0.000000
vt 18.711628 0.000000 0.000000
vt 23.389534 0.000000 0.000000
vt 28.067442 0.000000 0.000000
vt 32.745350 0.000000 0.000000
vt 37.423256 0.000000 0.000000
vt 42.101162 0.000000 0.000000
vt 46.779068 0.000000 0.000000
vt 51.456978 0.000000 0.000000
vt 56.134884 0.000000 0.000000
vt 60.812790 0.000000 0.000000
vt 65.490700 0.000000 0.000000
vt 70.168602 0.000000 0.000000
vt 74.846512 0.000000 0.000000
vt 74.846512 20.000000 0.000000
vt 70.168602 20.000000 0.000000
vt 65.490700 20.000000 0.000000
vt 60.812790 20.000000 0.000000
vt 56.134884 20.000000 0.000000
vt 51.456978 20.000000 0.000000
vt 46.779068 20.000000 0.000000
vt 42.101162 20.000000 0.000000
vt 37.423256 20.000000 0.000000
vt 32.745350 20.000000 0.000000
vt 28.067442 20.000000 0.000000
vt 23.389534 20.000000 0.000000
vt 18.711628 20.000000 0.000000
vt 14.033721 20.000000 0.000000
vt 9.355814 20.000000 0.000000
vt 4.677907 20.000000 0.000000
vt 0.000000 20.000000 0.000000
vt 15.000000 -81.500000 0.000000
vt 12.051707 -81.121208 0.000000
vt 9.254854 -80.217918 0.000000
vt 6.609439 -78.790131 0.000000
vt 4.115464 -76.837852 0.000000
vt 1.772927 -74.361084 0.000000
vt -0.418170 -71.359818 0.000000
vt -2.457829 -67.834061 0.000000
vt -4.346048 -63.783810 0.000000
vt -6.082829 -59.209061 0.000000
vt -7.668170 -54.109821 0.000000
vt -9.102073 -48.486084 0.000000
vt -10.384536 -42.337856 0.000000
vt -11.515560 -35.665134 0.000000
vt -12.495146 -28.467916 0.000000
vt -13.323293 -20.746204 0.000000
vt -14.000000 -12.500000 0.000000
vt -14.000000 82.500000 0.000000
vt -15.000000 82.500000 0.000000
vt -15.000000 -12.500000 0.000000
vt -14.397875 -20.934900 0.000000
vt -13.626034 -28.828480 0.000000
vt -12.684475 -36.180740 0.000000
vt -11.573200 -42.991676 0.000000
vt -10.292209 -49.261299 0.000000
vt -8.841500 -54.989597 0.000000
vt -7.221076 -60.176579 0.000000
vt -5.430934 -64.822235 0.000000
vt -3.471076 -68.926575 0.000000
vt -1.341500 -72.489601 0.000000
vt 0.957791 -75.511299 0.000000
vt 3.426800 -77.991676 0.000000
vt 6.065525 -79.930740 0.000000
vt 8.873966 -81.328476 0.000000
vt 11.852125 -82.184898 0.000000
vt 15.000000 -82.500000 0.000000
vt 14.000000 -12.500000 0.000000
vt 13.323293 -20.746204 0.000000
vt 12.495146 -28.467916 0.000000
vt 11.515560 -35.665134 0.000000
vt 10.384536 -42.337856 0.000000
vt 9.102073 -48.486084 0.000000
vt 7.668170 -54.109821 0.000000
vt 6.082829 -59.209061 0.000000
vt 4.346048 -63.783810 0.000000
vt 2.457829 -67.834061 0.000000
vt 0.418170 -71.359818 0.000000
vt -1.772927 -74.361084 0.000000
vt -4.115464 -76.837852 0.000000
vt -6.609439 -78.790131 0.000000
vt -9.254854 -80.217918 0.000000
vt -12.051707 -81.121208 0.000000
vt -15.000000 -81.500000 0.000000
vt -15.000000 -82.500000 0.000000
vt -11.852125 -82.184898 0.000000
vt -8.873966 -81.328476 0.000000
vt -6.065525 -79.930740 0.000000
vt -3.426800 -77.991676 0.000000
vt -0.957791 -75.511299 0.000000
vt 1.341500 -72.489601 0.000000
vt 3.471076 -68.926575 0.000000
vt 5.430934 -64.822235 0.000000
vt 7.221076 -60.176579 0.000000
vt 8.841500 -54.989597 0.000000
vt 10.292209 -49.261299 0.000000
vt 11.573200 -42.991676 0.000000
vt 12.684475 -36.180740 0.000000
vt 13.626034 -28.828480 0.000000
vt 14.397875 -20.934900 0.000000
vt 15.000000 -12.500000 0.000000
vt 15.000000 82.500000 0.000000
vt 14.000000 82.500000 0.000000
vn 0.000000 0.000000 0.100000
vn 0.000000 0.000000 0.100000
vn 0.000000 0.000000 0.100000
vn 0.000000 0.000000 0.100000
vn -0.005931 0.000000 -0.099824
vn -0.008385 0.000000 -0.099648
vn -0.011168 0.000000 -0.099374
vn -0.014344 0.000000 -0.098966
vn -0.017990 0.000000 -0.098368
vn -0.022200 0.000000 -0.097505
vn -0.027084 0.000000 -0.096262
vn -0.032771 0.000000 -0.094478
vn -0.039392 0.000000 -0.091915
vn -0.047060 0.000000 -0.088234
vn -0.055810 0.000000 -0.082977
vn -0.065492 0.000000 -0.075570
vn -0.075622 0.000000 -0.065432
vn -0.085273 0.000000 -0.052236
vn -0.093180 0.000000 -0.036298
vn -0.098220 0.000000 -0.018783
vn -0.099991 0.000000 -0.001375
vn -0.099991 0.000000 -0.001375
vn -0.098220 0.000000 -0.018783
vn -0.093180 0.000000 -0.036298
vn -0.085273 0.000000 -0.052236
vn -0.075622 0.000000 -0.065432
vn -0.065492 0.000000 -0.075570
vn -0.055810 0.000000 -0.082977
vn -0.047060 0.000000 -0.088234
vn -0.039392 0.000000 -0.091915
vn -0.032771 0.000000 -0.094478
vn -0.027084 0.000000 -0.096262
vn -0.022200 0.000000 -0.097505
vn -0.017990 0.000000 -0.098368
vn -0.014344 0.000000 -0.098966
vn -0.011168 0.000000 -0.099374
vn -0.008385 0.000000 -0.099648
vn -0.005931 0.000000 -0.099824
vn 0.000000 0.000000 -0.100000
vn 0.000000 0.000000 -0.100000
vn 0.000000 0.000000 -0.100000
vn 0.000000 0.000000 -0.100000
vn 0.100000 0.000000 0.000000
vn 0.100000 0.000000 0.000000
vn 0.100000 0.000000 0.000000
vn 0.100000 0.000000 0.000000
vn 0.000000 0.000000 0.100000
vn 0.000000 0.000000 0.100000
vn 0.000000 0.000000 0.100000
vn 0.000000 0.000000 0.100000
vn 0.099926 0.000000 0.003851
vn 0.097599 0.000000 0.021780
vn 0.091923 0.000000 0.039373
vn 0.083550 0.000000 0.054949
vn 0.073749 0.000000 0.067536
vn 0.063757 0.000000 0.077039
vn 0.054392 0.000000 0.083914
vn 0.046028 0.000000 0.088777
vn 0.038746 0.000000 0.092189
vn 0.032479 0.000000 0.094579
vn 0.027103 0.000000 0.096257
vn 0.022484 0.000000 0.097440
vn 0.018500 0.000000 0.098274
vn 0.015044 0.000000 0.098862
vn 0.012029 0.000000 0.099274
vn 0.009383 0.000000 0.099559
vn 0.007046 0.000000 0.099751
vn 0.007046 0.000000 0.099751
vn 0.009383 0.000000 0.099559
vn 0.012029 0.000000 0.099274
vn 0.015044 0.000000 0.098862
vn 0.018500 0.000000 0.098274
vn 0.022484 0.000000 0.097440
vn 0.027103 0.000000 0.096257
vn 0.032479 0.000000 0.094579
vn 0.038746 0.000000 0.092189
vn 0.046028 0.000000 0.088777
vn 0.054392 0.000000 0.083914
vn 0.063757 0.000000 0.077039
vn 0.073749 0.000000 0.067536
vn 0.083550 0.000000 0.054949
vn 0.091923 0.000000 0.039373
vn 0.097599 0.000000 0.021780
vn 0.099926 0.000000 0.003851
vn 0.000000 0.100000 0.000000
vn 0.000000 0.100000 0.000000
vn 0.000000 0.100000 0.000000
vn 0.000000 0.100000 0.000000
vn 0.000000 0.100000 0.000000
vn 0.000000 0.100000 0.000000
vn 0.000000 0.100000 0.000000
vn 0.000000 0.100000 0.000000
vn 0.000000 0.100000 0.000000
vn 0.000000 0.100000 0.000000
vn 0.000000 0.100000 0.000000
vn 0.000000 0.100000 0.000000
vn 0.000000 0.100000 0.000000
vn 0.000000 0.100000 0.000000
vn 0.000000 0.100000 0.000000
vn 0.000000 0.100000 0.000000
vn 0.000000 0.100000 0.000000
vn 0.000000 0.100000 0.000000
vn 0.000000 0.100000 0.000000
vn 0.000000 0.100000 0.000000
vn 0.000000 0.100000 0.000000
vn 0.000000 0.100000 0.000000
vn 0.000000 0.100000 0.000000
vn 0.000000 0.100000 0.000000
vn 0.000000 0.100000 0.000000
vn 0.000000 0.100000 0.000000
vn 0.000000 0.100000 0.000000
vn 0.000000 0.100000 0.000000
vn 0.000000 0.100000 0.000000
vn 0.000000 0.100000 0.000000
vn 0.000000 0.100000 0.000000
vn 0.000000 0.100000 0.000000
vn 0.000000 0.100000 0.000000
vn 0.000000 0.100000 0.000000
vn 0.000000 0.100000 0.000000
vn 0.000000 0.100000 0.000000
vn 0.000000 -0.100000 0.000000
vn 0.000000 -0.100000 0.000000
vn 0.000000 -0.100000 0.000000
vn 0.000000 -0.100000 0.000000
vn 0.000000 -0.100000 0.000000
vn 0.000000 -0.100000 0.000000
vn 0.000000 -0.100000 0.000000
vn 0.000000 -0.100000 0.000000
vn 0.000000 -0.100000 0.000000
vn 0.000000 -0.100000 0.000000
vn 0.000000 -0.100000 0.000000
vn 0.000000 -0.100000 0.000000
vn 0.000000 -0.100000 0.000000
vn 0.000000 -0.100000 0.000000
vn 0.000000 -0.100000 0.000000
vn 0.000000 -0.100000 0.000000
vn 0.000000 -0.100000 0.000000
vn 0.000000 -0.100000 0.000000
vn 0.000000 -0.100000 0.000000
vn 0.000000 -0.100000 0.000000
vn 0.000000 -0.100000 0.000000
vn 0.000000 -0.100000 0.000000
vn 0.000000 -0.100000 0.000000
vn 0.000000 -0.100000 0.000000
vn 0.000000 -0.100000 0.000000
vn 0.000000 -0.100000 0.000000
vn 0.000000 -0.100000 0.000000
vn 0.000000 -0.100000 0.000000
vn 0.000000 -0.100000 0.000000
vn 0.000000 -0.100000 0.000000
vn 0.000000 -0.100000 0.000000
vn 0.000000 -0.100000 0.000000
vn 0.000000 -0.100000 0.000000
vn 0.000000 -0.100000 0.000000
vn 0.000000 -0.100000 0.000000
vn 0.000000 -0.100000 0.000000
usemtl 191,191,191
f 1/1/1 5/2/2 2/4/4
f 2/4/4 5/2/2 6/3/3
f 65/5/5 61/6/6 67/38/38
f 67/38/38 61/6/6 62/37/37
f 62/37/37 61/6/6 57/7/7
f 62/37/37 57/7/7 58/36/36
f 58/36/36 57/7/7 53/8/8
f 58/36/36 53/8/8 54/35/35
f 54/35/35 53/8/8 49/9/9
f 54/35/35 49/9/9 50/34/34
f 50/34/34 49/9/9 45/10/10
f 50/34/34 45/10/10 46/33/33
f 46/33/33 45/10/10 41/11/11
f 46/33/33 41/11/11 42/32/32
f 42/32/32 41/11/11 37/12/12
f 42/32/32 37/12/12 38/31/31
f 38/31/31 37/12/12 33/13/13
f 38/31/31 33/13/13 34/30/30
f 34/30/30 33/13/13 29/14/14
f 34/30/30 29/14/14 30/29/29
f 30/29/29 29/14/14 25/15/15
f 30/29/29 25/15/15 26/28/28
f 26/28/28 25/15/15 21/16/16
f 26/28/28 21/16/16 22/27/27
f 22/27/27 21/16/16 17/17/17
f 22/27/27 17/17/17 18/26/26
f 18/26/26 17/17/17 13/18/18
f 18/26/26 13/18/18 14/25/25
f 14/25/25 13/18/18 7/19/19
f 14/25/25 7/19/19 8/24/24
f 8/24/24 7/19/19 3/20/20
f 8/24/24 3/20/20 4/23/23
f 4/23/23 3/20/20 1/21/21
f 4/23/23 1/21/21 2/22/22
f 69/39/39 65/40/40 71/42/42
f 71/42/42 65/40/40 67/41/41
f 70/43/43 69/44/44 72/46/46
f 72/46/46 69/44/44 71/45/45
f 66/47/47 70/48/48 68/50/50
f 68/50/50 70/48/48 72/49/49
f 5/51/51 9/52/52 6/84/84
f 6/84/84 9/52/52 10/83/83
f 10/83/83 9/52/52 11/53/53
f 10/83/83 11/53/53 12/82/82
f 12/82/82 11/53/53 15/54/54
f 12/82/82 15/54/54 16/81/81
f 16/81/81 15/54/54 19/55/55
f 16/81/81 19/55/55 20/80/80
f 20/80/80 19/55/55 23/56/56
f 20/80/80 23/56/56 24/79/79
f 24/79/79 23/56/56 27/57/57
f 24/79/79 27/57/57 28/78/78
f 28/78/78 27/57/57 31/58/58
f 28/78/78 31/58/58 32/77/77
f 32/77/77 31/58/58 35/59/59
f 32/77/77 35/59/59 36/76/76
f 36/76/76 35/59/59 39/60/60
f 36/76/76 39/60/60 40/75/75
f 40/75/75 39/60/60 43/61/61
f 40/75/75 43/61/61 44/74/74
f 44/74/74 43/61/61 47/62/62
f 44/74/74 47/62/62 48/73/73
f 48/73/73 47/62/62 51/63/63
f 48/73/73 51/63/63 52/72/72
f 52/72/72 51/63/63 55/64/64
f 52/72/72 55/64/64 56/71/71
f 56/71/71 55/64/64 59/65/65
f 56/71/71 59/65/65 60/70/70
f 60/70/70 59/65/65 63/66/66
f 60/70/70 63/66/66 64/69/69
f 64/69/69 63/66/66 66/67/67
f 64/69/69 66/67/67 68/68/68
f 6/85/85 10/86/86 2/120/120
f 2/120/120 10/86/86 4/119/119
f 4/119/119 10/86/86 12/87/87
f 4/119/119 12/87/87 8/118/118
f 8/118/118 12/87/87 16/88/88
f 8/118/118 16/88/88 14/117/117
f 14/117/117 16/88/88 20/89/89
f 14/117/117 20/89/89 18/116/116
f 18/116/116 20/89/89 24/90/90
f 18/116/116 24/90/90 22/115/115
f 22/115/115 24/90/90 28/91/91
f 22/115/115 28/91/91 26/114/114
f 26/114/114 28/91/91 32/92/92
f 26/114/114 32/92/92 30/113/113
f 30/113/113 32/92/92 36/93/93
f 30/113/113 36/93/93 34/112/112
f 34/112/112 36/93/93 40/94/94
f 34/112/112 40/94/94 38/111/111
f 38/111/111 40/94/94 44/95/95
f 38/111/111 44/95/95 42/110/110
f 42/110/110 44/95/95 48/96/96
f 42/110/110 48/96/96 46/109/109
f 46/109/109 48/96/96 52/97/97
f 46/109/109 52/97/97 50/108/108
f 50/108/108 52/97/97 56/98/98
f 50/108/108 56/98/98 54/107/107
f 54/107/107 56/98/98 60/99/99
f 54/107/107 60/99/99 58/106/106
f 58/106/106 60/99/99 64/100/100
f 58/106/106 64/100/100 62/105/105
f 62/105/105 64/100/100 68/101/101
f 62/105/105 68/101/101 67/104/104
f 67/104/104 68/101/101 71/103/103
f 71/103/103 68/101/101 72/102/102
f 63/122/122 61/153/153 66/121/121
f 66/121/121 61/153/153 65/154/154
f 66/121/121 65/154/154 70/156/156
f 70/156/156 65/154/154 69/155/155
f 61/153/153 63/122/122 57/152/152
f 57/152/152 63/122/122 59/123/123
f 57/152/152 59/123/123 53/151/151
f 53/151/151 59/123/123 55/124/124
f 53/151/151 55/124/124 49/150/150
f 49/150/150 55/124/124 51/125/125
f 49/150/150 51/125/125 45/149/149
f 45/149/149 51/125/125 47/126/126
f 45/149/149 47/126/126 41/148/148
f 41/148/148 47/126/126 43/127/127
f 41/148/148 43/127/127 37/147/147
f 37/147/147 43/127/127 39/128/128
f 37/147/147 39/128/128 33/146/146
f 33/146/146 39/128/128 35/129/129
f 33/146/146 35/129/129 29/145/145
f 29/145/145 35/129/129 31/130/130
f 29/145/145 31/130/130 25/144/144
f 25/144/144 31/130/130 27/131/131
f 25/144/144 27/131/131 21/143/143
f 21/143/143 27/131/131 23/132/132
f 21/143/143 23/132/132 17/142/142
f 17/142/142 23/132/132 19/133/133
f 17/142/142 19/133/133 13/141/141
f 13/141/141 19/133/133 15/134/134
f 13/141/141 15/134/134 7/140/140
f 7/140/140 15/134/134 11/135/135
f 7/140/140 11/135/135 3/139/139
f 3/139/139 11/135/135 9/136/136
f 3/139/139 9/136/136 1/138/138
f 1/138/138 9/136/136 5/137/137
# 72 vertices
# 156 texture params
# 156 normals
# 140 facets

# 1 groups
